<?xml version="1.0" standalone="no"?>
<svg xmlns:xlink="http://www.w3.org/1999/xlink" id="wave" style="transform:rotate(180deg); transition: 0.3s" viewBox="0 0 1440 100" version="1.1" xmlns="http://www.w3.org/2000/svg"><defs><linearGradient id="sw-gradient-0" x1="0" x2="0" y1="1" y2="0"><stop stop-color="rgba(81, 150, 166, 1)" offset="0%"/><stop stop-color="rgba(145, 215, 242, 1)" offset="100%"/></linearGradient></defs><path style="transform:translate(0, 0px); opacity:1" fill="url(#sw-gradient-0)" d="M0,30L21.8,36.7C43.6,43,87,57,131,61.7C174.5,67,218,63,262,51.7C305.5,40,349,20,393,18.3C436.4,17,480,33,524,35C567.3,37,611,23,655,20C698.2,17,742,23,785,36.7C829.1,50,873,70,916,73.3C960,77,1004,63,1047,48.3C1090.9,33,1135,17,1178,18.3C1221.8,20,1265,40,1309,43.3C1352.7,47,1396,33,1440,26.7C1483.6,20,1527,20,1571,30C1614.5,40,1658,60,1702,56.7C1745.5,53,1789,27,1833,13.3C1876.4,0,1920,0,1964,1.7C2007.3,3,2051,7,2095,11.7C2138.2,17,2182,23,2225,30C2269.1,37,2313,43,2356,38.3C2400,33,2444,17,2487,10C2530.9,3,2575,7,2618,16.7C2661.8,27,2705,43,2749,53.3C2792.7,63,2836,67,2880,71.7C2923.6,77,2967,83,3011,85C3054.5,87,3098,83,3120,81.7L3141.8,80L3141.8,100L3120,100C3098.2,100,3055,100,3011,100C2967.3,100,2924,100,2880,100C2836.4,100,2793,100,2749,100C2705.5,100,2662,100,2618,100C2574.5,100,2531,100,2487,100C2443.6,100,2400,100,2356,100C2312.7,100,2269,100,2225,100C2181.8,100,2138,100,2095,100C2050.9,100,2007,100,1964,100C1920,100,1876,100,1833,100C1789.1,100,1745,100,1702,100C1658.2,100,1615,100,1571,100C1527.3,100,1484,100,1440,100C1396.4,100,1353,100,1309,100C1265.5,100,1222,100,1178,100C1134.5,100,1091,100,1047,100C1003.6,100,960,100,916,100C872.7,100,829,100,785,100C741.8,100,698,100,655,100C610.9,100,567,100,524,100C480,100,436,100,393,100C349.1,100,305,100,262,100C218.2,100,175,100,131,100C87.3,100,44,100,22,100L0,100Z"/></svg>