<?xml version="1.0" standalone="no"?>
<svg xmlns:xlink="http://www.w3.org/1999/xlink" id="wave" style="transform:rotate(180deg); transition: 0.3s" viewBox="0 0 1440 230" version="1.1" xmlns="http://www.w3.org/2000/svg"><defs><linearGradient id="sw-gradient-0" x1="0" x2="0" y1="1" y2="0"><stop stop-color="rgba(243, 106, 62, 1)" offset="0%"/><stop stop-color="rgba(242, 169, 80, 1)" offset="100%"/></linearGradient></defs><path style="transform:translate(0, 0px); opacity:1" fill="url(#sw-gradient-0)" d="M0,138L20,145.7C40,153,80,169,120,161C160,153,200,123,240,92C280,61,320,31,360,15.3C400,0,440,0,480,3.8C520,8,560,15,600,30.7C640,46,680,69,720,69C760,69,800,46,840,46C880,46,920,69,960,80.5C1000,92,1040,92,1080,76.7C1120,61,1160,31,1200,15.3C1240,0,1280,0,1320,26.8C1360,54,1400,107,1440,126.5C1480,146,1520,130,1560,126.5C1600,123,1640,130,1680,115C1720,100,1760,61,1800,49.8C1840,38,1880,54,1920,80.5C1960,107,2000,146,2040,134.2C2080,123,2120,61,2160,65.2C2200,69,2240,138,2280,153.3C2320,169,2360,130,2400,126.5C2440,123,2480,153,2520,168.7C2560,184,2600,184,2640,187.8C2680,192,2720,199,2760,172.5C2800,146,2840,84,2860,53.7L2880,23L2880,230L2860,230C2840,230,2800,230,2760,230C2720,230,2680,230,2640,230C2600,230,2560,230,2520,230C2480,230,2440,230,2400,230C2360,230,2320,230,2280,230C2240,230,2200,230,2160,230C2120,230,2080,230,2040,230C2000,230,1960,230,1920,230C1880,230,1840,230,1800,230C1760,230,1720,230,1680,230C1640,230,1600,230,1560,230C1520,230,1480,230,1440,230C1400,230,1360,230,1320,230C1280,230,1240,230,1200,230C1160,230,1120,230,1080,230C1040,230,1000,230,960,230C920,230,880,230,840,230C800,230,760,230,720,230C680,230,640,230,600,230C560,230,520,230,480,230C440,230,400,230,360,230C320,230,280,230,240,230C200,230,160,230,120,230C80,230,40,230,20,230L0,230Z"/><defs><linearGradient id="sw-gradient-1" x1="0" x2="0" y1="1" y2="0"><stop stop-color="rgba(243, 106, 62, 1)" offset="0%"/><stop stop-color="rgba(255, 179, 11, 1)" offset="100%"/></linearGradient></defs><path style="transform:translate(0, 50px); opacity:0.9" fill="url(#sw-gradient-1)" d="M0,0L20,11.5C40,23,80,46,120,46C160,46,200,23,240,23C280,23,320,46,360,69C400,92,440,115,480,138C520,161,560,184,600,172.5C640,161,680,115,720,88.2C760,61,800,54,840,69C880,84,920,123,960,126.5C1000,130,1040,100,1080,88.2C1120,77,1160,84,1200,84.3C1240,84,1280,77,1320,65.2C1360,54,1400,38,1440,38.3C1480,38,1520,54,1560,53.7C1600,54,1640,38,1680,49.8C1720,61,1760,100,1800,130.3C1840,161,1880,184,1920,191.7C1960,199,2000,192,2040,184C2080,176,2120,169,2160,161C2200,153,2240,146,2280,122.7C2320,100,2360,61,2400,42.2C2440,23,2480,23,2520,42.2C2560,61,2600,100,2640,122.7C2680,146,2720,153,2760,157.2C2800,161,2840,161,2860,161L2880,161L2880,230L2860,230C2840,230,2800,230,2760,230C2720,230,2680,230,2640,230C2600,230,2560,230,2520,230C2480,230,2440,230,2400,230C2360,230,2320,230,2280,230C2240,230,2200,230,2160,230C2120,230,2080,230,2040,230C2000,230,1960,230,1920,230C1880,230,1840,230,1800,230C1760,230,1720,230,1680,230C1640,230,1600,230,1560,230C1520,230,1480,230,1440,230C1400,230,1360,230,1320,230C1280,230,1240,230,1200,230C1160,230,1120,230,1080,230C1040,230,1000,230,960,230C920,230,880,230,840,230C800,230,760,230,720,230C680,230,640,230,600,230C560,230,520,230,480,230C440,230,400,230,360,230C320,230,280,230,240,230C200,230,160,230,120,230C80,230,40,230,20,230L0,230Z"/></svg>